<svg xmlns="http://www.w3.org/2000/svg">
  <symbol id="logo" viewBox="0 0 54 55">
    <rect y="0.5" width="54" height="54" rx="8" fill="#FF9500"/>
    <path d="M11.167 44.1667L22.0003 33.3333H32.8337V22.5L43.667 33.3333L32.8337 44.1667H11.167Z" fill="white"/>
    <path d="M11.167 22.5L22.0003 33.3333V22.5H32.8337L43.667 11.6667H22.0003L11.167 22.5Z" fill="white"/>
  </symbol>
  <symbol id="arrow-right" viewBox="0 0 24 25">
    <path fill-rule="evenodd" clip-rule="evenodd" d="M3.59961 12.5C3.59961 12.0029 4.00255 11.6 4.49961 11.6L17.2651 11.6L12.2758 6.84874C11.9175 6.50423 11.9063 5.93449 12.2509 5.5762C12.5954 5.2179 13.1651 5.20673 13.5234 5.55125L20.1234 11.8512C20.2999 12.0209 20.3996 12.2552 20.3996 12.5C20.3996 12.7448 20.2999 12.9791 20.1234 13.1487L13.5234 19.4487C13.1651 19.7933 12.5954 19.7821 12.2509 19.4238C11.9063 19.0655 11.9175 18.4958 12.2758 18.1512L17.2651 13.4L4.49961 13.4C4.00255 13.4 3.59961 12.9971 3.59961 12.5Z" fill="white"/>
  </symbol>
  <symbol id="burger-menu" viewBox="0 0 20 20">
    <path fill-rule="evenodd" d="M3 5a1 1 0 011-1h12a1 1 0 110 2H4a1 1 0 01-1-1zM3 10a1 1 0 011-1h12a1 1 0 110 2H4a1 1 0 01-1-1zM9 15a1 1 0 011-1h6a1 1 0 110 2h-6a1 1 0 01-1-1z" clip-rule="evenodd"/>
  </symbol>
  <symbol id="cross" viewBox="0 0 24 24">
    <path d="M6.2253 4.81108C5.83477 4.42056 5.20161 4.42056 4.81108 4.81108C4.42056 5.20161 4.42056 5.83477 4.81108 6.2253L10.5858 12L4.81114 17.7747C4.42062 18.1652 4.42062 18.7984 4.81114 19.1889C5.20167 19.5794 5.83483 19.5794 6.22535 19.1889L12 13.4142L17.7747 19.1889C18.1652 19.5794 18.7984 19.5794 19.1889 19.1889C19.5794 18.7984 19.5794 18.1652 19.1889 17.7747L13.4142 12L19.189 6.2253C19.5795 5.83477 19.5795 5.20161 19.189 4.81108C18.7985 4.42056 18.1653 4.42056 17.7748 4.81108L12 10.5858L6.2253 4.81108Z"/>
  </symbol>
</svg>

